<svg id="visual" viewBox="0 0 1400 600" width="1400" height="600" xmlns="http://www.w3.org/2000/svg" xmlns:xlink="http://www.w3.org/1999/xlink" version="1.1"><rect x="0" y="0" width="1400" height="600" fill="#ffffff"></rect><path d="M0 145L33.3 154.8C66.7 164.7 133.3 184.3 200 188.3C266.7 192.3 333.3 180.7 400 162.5C466.7 144.3 533.3 119.7 600 120.3C666.7 121 733.3 147 800 168C866.7 189 933.3 205 1000 210C1066.7 215 1133.3 209 1200 198.7C1266.7 188.3 1333.3 173.7 1366.7 166.3L1400 159L1400 0L1366.7 0C1333.3 0 1266.7 0 1200 0C1133.3 0 1066.7 0 1000 0C933.3 0 866.7 0 800 0C733.3 0 666.7 0 600 0C533.3 0 466.7 0 400 0C333.3 0 266.7 0 200 0C133.3 0 66.7 0 33.3 0L0 0Z" fill="#0066FF" stroke-linecap="round" stroke-linejoin="miter"></path></svg>