<svg id="visual" viewBox="0 0 1400 700" width="1400" height="700" xmlns="http://www.w3.org/2000/svg" xmlns:xlink="http://www.w3.org/1999/xlink" version="1.1"><rect x="0" y="0" width="1400" height="700" fill="#ffffff"></rect><path d="M0 259L33.3 251.5C66.7 244 133.3 229 200 228.8C266.7 228.7 333.3 243.3 400 250.7C466.7 258 533.3 258 600 255.8C666.7 253.7 733.3 249.3 800 249.7C866.7 250 933.3 255 1000 250.5C1066.7 246 1133.3 232 1200 224.5C1266.7 217 1333.3 216 1366.7 215.5L1400 215L1400 0L1366.7 0C1333.3 0 1266.7 0 1200 0C1133.3 0 1066.7 0 1000 0C933.3 0 866.7 0 800 0C733.3 0 666.7 0 600 0C533.3 0 466.7 0 400 0C333.3 0 266.7 0 200 0C133.3 0 66.7 0 33.3 0L0 0Z" fill="#0a099a"></path><path d="M0 145L33.3 145.2C66.7 145.3 133.3 145.7 200 151.5C266.7 157.3 333.3 168.7 400 177.7C466.7 186.7 533.3 193.3 600 202.2C666.7 211 733.3 222 800 221C866.7 220 933.3 207 1000 207.8C1066.7 208.7 1133.3 223.3 1200 228.3C1266.7 233.3 1333.3 228.7 1366.7 226.3L1400 224L1400 0L1366.7 0C1333.3 0 1266.7 0 1200 0C1133.3 0 1066.7 0 1000 0C933.3 0 866.7 0 800 0C733.3 0 666.7 0 600 0C533.3 0 466.7 0 400 0C333.3 0 266.7 0 200 0C133.3 0 66.7 0 33.3 0L0 0Z" fill="#0041b4"></path><path d="M0 161L33.3 161.8C66.7 162.7 133.3 164.3 200 155.7C266.7 147 333.3 128 400 118.7C466.7 109.3 533.3 109.7 600 111.7C666.7 113.7 733.3 117.3 800 124.8C866.7 132.3 933.3 143.7 1000 147.2C1066.7 150.7 1133.3 146.3 1200 137.8C1266.7 129.3 1333.3 116.7 1366.7 110.3L1400 104L1400 0L1366.7 0C1333.3 0 1266.7 0 1200 0C1133.3 0 1066.7 0 1000 0C933.3 0 866.7 0 800 0C733.3 0 666.7 0 600 0C533.3 0 466.7 0 400 0C333.3 0 266.7 0 200 0C133.3 0 66.7 0 33.3 0L0 0Z" fill="#0068c4"></path><path d="M0 80L33.3 82.8C66.7 85.7 133.3 91.3 200 100.8C266.7 110.3 333.3 123.7 400 128.5C466.7 133.3 533.3 129.7 600 126.8C666.7 124 733.3 122 800 113.8C866.7 105.7 933.3 91.3 1000 94C1066.7 96.7 1133.3 116.3 1200 122.8C1266.7 129.3 1333.3 122.7 1366.7 119.3L1400 116L1400 0L1366.7 0C1333.3 0 1266.7 0 1200 0C1133.3 0 1066.7 0 1000 0C933.3 0 866.7 0 800 0C733.3 0 666.7 0 600 0C533.3 0 466.7 0 400 0C333.3 0 266.7 0 200 0C133.3 0 66.7 0 33.3 0L0 0Z" fill="#0089c8"></path><path d="M0 60L33.3 63C66.7 66 133.3 72 200 76.2C266.7 80.3 333.3 82.7 400 76.7C466.7 70.7 533.3 56.3 600 47.5C666.7 38.7 733.3 35.3 800 34.2C866.7 33 933.3 34 1000 38C1066.7 42 1133.3 49 1200 52.8C1266.7 56.7 1333.3 57.3 1366.7 57.7L1400 58L1400 0L1366.7 0C1333.3 0 1266.7 0 1200 0C1133.3 0 1066.7 0 1000 0C933.3 0 866.7 0 800 0C733.3 0 666.7 0 600 0C533.3 0 466.7 0 400 0C333.3 0 266.7 0 200 0C133.3 0 66.7 0 33.3 0L0 0Z" fill="#08a4bd"></path></svg>