<svg id="visual" viewBox="0 0 1400 600" width="1400" height="600" xmlns="http://www.w3.org/2000/svg" xmlns:xlink="http://www.w3.org/1999/xlink" version="1.1"><path d="M0 139L21.2 143C42.3 147 84.7 155 127.2 148C169.7 141 212.3 119 254.8 116C297.3 113 339.7 129 382 129C424.3 129 466.7 113 509 109C551.3 105 593.7 113 636.2 119C678.7 125 721.3 129 763.8 121C806.3 113 848.7 93 891 86C933.3 79 975.7 85 1018 89C1060.3 93 1102.7 95 1145.2 91C1187.7 87 1230.3 77 1272.8 86C1315.3 95 1357.7 123 1378.8 137L1400 151L1400 0L1378.8 0C1357.7 0 1315.3 0 1272.8 0C1230.3 0 1187.7 0 1145.2 0C1102.7 0 1060.3 0 1018 0C975.7 0 933.3 0 891 0C848.7 0 806.3 0 763.8 0C721.3 0 678.7 0 636.2 0C593.7 0 551.3 0 509 0C466.7 0 424.3 0 382 0C339.7 0 297.3 0 254.8 0C212.3 0 169.7 0 127.2 0C84.7 0 42.3 0 21.2 0L0 0Z" fill="#ffffff"></path><path d="M0 199L21.2 202C42.3 205 84.7 211 127.2 216C169.7 221 212.3 225 254.8 221C297.3 217 339.7 205 382 205C424.3 205 466.7 217 509 223C551.3 229 593.7 229 636.2 224C678.7 219 721.3 209 763.8 200C806.3 191 848.7 183 891 185C933.3 187 975.7 199 1018 203C1060.3 207 1102.7 203 1145.2 186C1187.7 169 1230.3 139 1272.8 140C1315.3 141 1357.7 173 1378.8 189L1400 205L1400 149L1378.8 135C1357.7 121 1315.3 93 1272.8 84C1230.3 75 1187.7 85 1145.2 89C1102.7 93 1060.3 91 1018 87C975.7 83 933.3 77 891 84C848.7 91 806.3 111 763.8 119C721.3 127 678.7 123 636.2 117C593.7 111 551.3 103 509 107C466.7 111 424.3 127 382 127C339.7 127 297.3 111 254.8 114C212.3 117 169.7 139 127.2 146C84.7 153 42.3 145 21.2 141L0 137Z" fill="#d0e8ee"></path><path d="M0 403L21.2 410C42.3 417 84.7 431 127.2 441C169.7 451 212.3 457 254.8 432C297.3 407 339.7 351 382 345C424.3 339 466.7 383 509 395C551.3 407 593.7 387 636.2 382C678.7 377 721.3 387 763.8 388C806.3 389 848.7 381 891 372C933.3 363 975.7 353 1018 354C1060.3 355 1102.7 367 1145.2 368C1187.7 369 1230.3 359 1272.8 352C1315.3 345 1357.7 341 1378.8 339L1400 337L1400 203L1378.8 187C1357.7 171 1315.3 139 1272.8 138C1230.3 137 1187.7 167 1145.2 184C1102.7 201 1060.3 205 1018 201C975.7 197 933.3 185 891 183C848.7 181 806.3 189 763.8 198C721.3 207 678.7 217 636.2 222C593.7 227 551.3 227 509 221C466.7 215 424.3 203 382 203C339.7 203 297.3 215 254.8 219C212.3 223 169.7 219 127.2 214C84.7 209 42.3 203 21.2 200L0 197Z" fill="#a0d1de"></path><path d="M0 499L21.2 499C42.3 499 84.7 499 127.2 501C169.7 503 212.3 507 254.8 485C297.3 463 339.7 415 382 408C424.3 401 466.7 435 509 447C551.3 459 593.7 449 636.2 453C678.7 457 721.3 475 763.8 480C806.3 485 848.7 477 891 466C933.3 455 975.7 441 1018 442C1060.3 443 1102.7 459 1145.2 461C1187.7 463 1230.3 451 1272.8 440C1315.3 429 1357.7 419 1378.8 414L1400 409L1400 335L1378.8 337C1357.7 339 1315.3 343 1272.8 350C1230.3 357 1187.7 367 1145.2 366C1102.7 365 1060.3 353 1018 352C975.7 351 933.3 361 891 370C848.7 379 806.3 387 763.8 386C721.3 385 678.7 375 636.2 380C593.7 385 551.3 405 509 393C466.7 381 424.3 337 382 343C339.7 349 297.3 405 254.8 430C212.3 455 169.7 449 127.2 439C84.7 429 42.3 415 21.2 408L0 401Z" fill="#6abace"></path><path d="M0 601L21.2 601C42.3 601 84.7 601 127.2 601C169.7 601 212.3 601 254.8 601C297.3 601 339.7 601 382 601C424.3 601 466.7 601 509 601C551.3 601 593.7 601 636.2 601C678.7 601 721.3 601 763.8 601C806.3 601 848.7 601 891 601C933.3 601 975.7 601 1018 601C1060.3 601 1102.7 601 1145.2 601C1187.7 601 1230.3 601 1272.8 601C1315.3 601 1357.7 601 1378.8 601L1400 601L1400 407L1378.8 412C1357.7 417 1315.3 427 1272.8 438C1230.3 449 1187.7 461 1145.2 459C1102.7 457 1060.3 441 1018 440C975.7 439 933.3 453 891 464C848.7 475 806.3 483 763.8 478C721.3 473 678.7 455 636.2 451C593.7 447 551.3 457 509 445C466.7 433 424.3 399 382 406C339.7 413 297.3 461 254.8 483C212.3 505 169.7 501 127.2 499C84.7 497 42.3 497 21.2 497L0 497Z" fill="#08a4bd"></path></svg>